# xmcd
#
# Track frame offsets: 
#        150
#        44922
#        65810
#        91872
#        106597
#        136070
#        157555
#        188510
#        239399
#        272807
#        292836
#        310725
#        345471
#
# Disc length: 4904 seconds
#
# Revision: 0
# Processed by: cddbd v1.5.2PL0 Copyright (c) Steve Scherf et al.
# Submitted via: ExactAudioCopy v1.0b6
#
DISCID=a813260d
DTITLE=Coleman Hawkins - Complete Albums Collection 1957-1959 (2016)
DYEAR=1958
DGENRE=Jazz Sax Tenor
TTITLE0=Soul Blues
TTITLE1=I Hadn't Anyone Till You
TTITLE2=Groovin'
TTITLE3=Greensleeves
TTITLE4=Sunday Mornin'
TTITLE5=Until The Real Thing Comes Along
TTITLE6=Sweetnin'
TTITLE7=Bird Of Prey Blues
TTITLE8=My One And Only Love
TTITLE9=Vignette
TTITLE10=Ooh-Wee, Miss G.P.
TTITLE11=You've Changed
TTITLE12=Get Set
EXTD=
EXTT0=
EXTT1=
EXTT2=
EXTT3=
EXTT4=
EXTT5=
EXTT6=
EXTT7=
EXTT8=
EXTT9=
EXTT10=
EXTT11=
EXTT12=
PLAYORDER=
